<?xml version="1.0" encoding="utf-8"?>
<!-- Generator: Adobe Illustrator 26.2.1, SVG Export Plug-In . SVG Version: 6.00 Build 0)  -->
<svg version="1.1" id="Layer_1" xmlns="http://www.w3.org/2000/svg" xmlns:xlink="http://www.w3.org/1999/xlink" x="0px" y="0px"
	 viewBox="0 0 1121.8 533.9" style="enable-background:new 0 0 1121.8 533.9;" xml:space="preserve">
<style type="text/css">
	.st0{fill:#1A1A1A;}
</style>
<g>
	<g>
		<circle cx="565.8" cy="192.5" r="72"/>
		<circle class="st0" cx="565.8" cy="192.5" r="61.7"/>
	</g>
	<g>
		<circle cx="720.8" cy="126.5" r="72"/>
		<circle class="st0" cx="720.8" cy="126.5" r="61.7"/>
	</g>
	<g>
		<circle cx="888.8" cy="154.5" r="72"/>
		<circle class="st0" cx="888.8" cy="154.5" r="61.7"/>
	</g>
	<g>
		<circle cx="1049.8" cy="225.5" r="72"/>
		
			<ellipse transform="matrix(0.3417 -0.9398 0.9398 0.3417 479.1371 1135.016)" class="st0" cx="1049.8" cy="225.5" rx="61.7" ry="61.7"/>
	</g>
	<g>
		<ellipse transform="matrix(0.7071 -0.7071 0.7071 0.7071 10.249 839.7922)" cx="1018.8" cy="407.5" rx="72" ry="72"/>
		<circle class="st0" cx="1018.8" cy="407.5" r="61.7"/>
	</g>
	<g>
		<circle cx="857.8" cy="336.5" r="72"/>
		<circle class="st0" cx="857.8" cy="336.5" r="61.7"/>
	</g>
	<g>
		<circle cx="688.8" cy="308.5" r="72"/>
		<circle class="st0" cx="688.8" cy="308.5" r="61.7"/>
	</g>
	<g>
		<circle cx="532.8" cy="373.5" r="72"/>
		<circle class="st0" cx="532.8" cy="373.5" r="61.7"/>
	</g>
</g>
<circle cx="303.8" cy="308.5" r="57"/>
</svg>
